<svg viewBox="0 0 64 64" xmlns="http://www.w3.org/2000/svg">
  <defs>
    <linearGradient id="g" x1="0%" y1="0%" x2="100%" y2="100%">
      <stop offset="0%" stop-color="#00c47f"/>
      <stop offset="100%" stop-color="#00995d"/>
    </linearGradient>
    <mask id="hole">
      <rect x="0" y="0" width="64" height="64" fill="white"/>
      <circle cx="32" cy="32" r="9" fill="black"/>
    </mask>
  </defs>

  <!-- Gear body with center hole cut out -->
  <g fill="url(#g)" mask="url(#hole)">
    <path d="
      M32 4
      L36.6 4 L38 11.2
      A21 21 0 0 1 45 14.2
      L51.2 10.4 L54 13.2 L50.2 19.4
      A21 21 0 0 1 53.2 26.4
      L60.4 27.8 L60.4 32.6 L60.4 37.4
      L53.2 37.6
      A21 21 0 0 1 50.2 44.6
      L54 50.8 L51.2 53.6 L45 49.8
      A21 21 0 0 1 38 52.8
      L36.6 60 L27.4 60 L26 52.8
      A21 21 0 0 1 19 49.8
      L12.8 53.6 L10 50.8 L13.8 44.6
      A21 21 0 0 1 10.8 37.6
      L3.6 36.6 L3.6 27.4 L10.8 26.4
      A21 21 0 0 1 13.8 19.4
      L10 13.2 L12.8 10.4 L19 14.2
      A21 21 0 0 1 26 11.2
      L27.4 4
      Z"/>
  </g>

  <!-- Wrench crossing diagonally in front, cream color for contrast -->
  <g transform="translate(32,32) rotate(45) translate(-32,-32)" fill="#f4fbf7">
    <rect x="29.5" y="8" width="5" height="30" rx="2.2"/>
    <path d="M32 6
      a7 7 0 0 0 -6.9 8.1
      l3.3 -1.2
      a3.7 3.7 0 1 1 7.2 0
      l3.3 1.2
      A7 7 0 0 0 32 6 Z"/>
    <path d="M25.5 40
      h13
      l-3 6
      h-7
      z"/>
  </g>
</svg>
